<?xml version="1.0" encoding="UTF-8" standalone="no"?>
<!-- Created with Inkscape (http://www.inkscape.org/) -->

<svg
   width="210mm"
   height="297mm"
   viewBox="0 0 210 297"
   version="1.1"
   id="svg3815"
   inkscape:export-filename="ic_milionaria.png"
   inkscape:export-xdpi="184.2421"
   inkscape:export-ydpi="184.2421"
   inkscape:version="1.2.1 (9c6d41e410, 2022-07-14)"
   sodipodi:docname="TREVO NOVO.svg"
   xmlns:inkscape="http://www.inkscape.org/namespaces/inkscape"
   xmlns:sodipodi="http://sodipodi.sourceforge.net/DTD/sodipodi-0.dtd"
   xmlns="http://www.w3.org/2000/svg"
   xmlns:svg="http://www.w3.org/2000/svg">
  <sodipodi:namedview
     id="namedview3817"
     pagecolor="#ffffff"
     bordercolor="#666666"
     borderopacity="1.0"
     inkscape:showpageshadow="2"
     inkscape:pageopacity="0.0"
     inkscape:pagecheckerboard="0"
     inkscape:deskcolor="#d1d1d1"
     inkscape:document-units="mm"
     showgrid="false"
     inkscape:zoom="6.7277216"
     inkscape:cx="177.84624"
     inkscape:cy="572.40775"
     inkscape:window-width="1920"
     inkscape:window-height="1027"
     inkscape:window-x="-8"
     inkscape:window-y="502"
     inkscape:window-maximized="1"
     inkscape:current-layer="layer1" />
  <defs
     id="defs3812" />
  <g
     inkscape:label="Camada 1"
     inkscape:groupmode="layer"
     id="layer1">
    <g
       id="g1115"
       transform="matrix(0.37604301,0,0,0.37604301,33.141069,116.94358)"
       style="stroke:#ffffff">
      <path
         style="fill:#2e317a;fill-opacity:1;stroke:#ffffff;stroke-width:0.264583px;stroke-linecap:butt;stroke-linejoin:miter;stroke-opacity:1"
         d="m 48.339541,89.869291 v -9.224292 c 0,-3.948998 -7.40525,-3.948998 -7.40525,2e-6 v 2.14131 h -2.140999 c -3.949089,0 -3.949089,7.08298 0,7.08298 z"
         id="path1107"
         sodipodi:nodetypes="ccccccc" />
      <path
         style="fill:#59629f;fill-opacity:1;stroke:#ffffff;stroke-width:0.264583px;stroke-linecap:butt;stroke-linejoin:miter;stroke-opacity:1"
         d="m 49.821541,89.869291 v -9.224292 c 0,-3.948998 7.40525,-3.948998 7.40525,2e-6 v 2.14131 h 2.140999 c 3.949089,0 3.949089,7.08298 0,7.08298 z"
         id="path1109"
         sodipodi:nodetypes="ccccccc" />
      <path
         style="fill:#59629f;fill-opacity:1;stroke:#ffffff;stroke-width:0.264583px;stroke-linecap:butt;stroke-linejoin:miter;stroke-opacity:1"
         d="m 48.339541,91.351321 v 9.224289 c 0,3.949 -7.40525,3.949 -7.40525,0 v -2.141309 h -2.140999 c -3.949089,0 -3.949089,-7.08298 0,-7.08298 z"
         id="path1111"
         sodipodi:nodetypes="ccccccc" />
      <path
         style="fill:#2e317a;fill-opacity:1;stroke:#ffffff;stroke-width:0.264583px;stroke-linecap:butt;stroke-linejoin:miter;stroke-opacity:1"
         d="m 49.821541,91.351321 v 9.224289 c 0,3.949 7.40525,3.949 7.40525,0 v -2.141309 h 2.140999 c 3.949089,0 3.949089,-7.08298 0,-7.08298 z"
         id="path1113"
         sodipodi:nodetypes="ccccccc" />
    </g>
  </g>
</svg>
